<svg xmlns="http://www.w3.org/2000/svg" xml:space="preserve" viewBox="0 0 250 250"><path fill="#010101" d="M164 251H1V1h250v250h-87m-86.424-99.867 6.305-15.908c4.957 11.774 9.533 22.359 13.846 33.05 1.372 3.398 3.22 5.242 7.047 4.698 1.469-.209 3.022-.2 4.488.026 5.652.873 8.347-1.9 10.298-6.966 5.558-14.43 11.555-28.692 17.365-43.025 6.744-16.637 13.492-33.272 20.198-49.924 2.207-5.48 1.641-6.239-4.393-6.274-2.332-.014-4.664.076-6.996.043-8.456-.119-9.297.46-12.342 8.472a54684.57 54684.57 0 0 1-24.258 63.73c-.35.92-.915 1.759-1.546 2.95-3.554-9.183-6.767-17.87-10.288-26.432-2.084-5.067-2.046-9.805.096-14.866 3.868-9.139 7.422-18.412 11.026-27.66 1.919-4.924.925-6.247-4.406-6.24-2.665.003-5.33.052-7.993-.012-6.526-.156-8.453 1.059-10.761 7.274-2.532 6.817-4.896 13.695-7.41 20.518-5.788 15.703-11.622 31.388-17.796 48.049-2.039-5.478-3.707-9.955-5.37-14.434-6.774-18.24-13.487-36.502-20.396-54.69-.81-2.132-2.545-5.361-4.097-5.51-6.499-.62-13.091-.262-20.016-.262.981 2.677 1.724 4.839 2.56 6.963 11.428 29.017 22.876 58.026 34.302 87.042 4.422 11.23 4.406 11.115 16.464 11.31 3.925.064 6.234-1.39 7.541-4.995 1.973-5.445 4.092-10.837 6.532-16.927m121.661-.674c-16.708-9.759-22.714-27.395-15.336-44.89 3.263-7.738 8.881-13.091 16.387-16.64 11.67-5.515 22.816-3.255 33.904 2.846l12.026-31.83c-3.011-1.385-5.547-2.577-8.105-3.721-4.284-1.916-7.357-.956-9.13 3.652-.93 2.42-2.24 4.692-3.323 6.914-23.222-5.356-47.853 5.987-59.321 26.837-5.906 10.737-7.9 22.308-6.266 34.21 2.154 15.685 10.3 28.16 22.888 37.446l-8.552 19.799c7.306 0 13.94.137 20.558-.115 1.34-.051 3.304-1.28 3.824-2.471 4.037-9.246 7.79-18.616 11.6-27.87-3.7-1.356-7.09-2.598-11.154-4.167z"/><path fill="#F8F8F8" d="M77.384 151.47c-2.248 5.753-4.367 11.145-6.34 16.59-1.307 3.606-3.616 5.06-7.541 4.996-12.058-.196-12.042-.081-16.464-11.31-11.426-29.017-22.874-58.026-34.301-87.043-.837-2.124-1.58-4.286-2.56-6.963 6.924 0 13.516-.359 20.015.262 1.552.149 3.287 3.378 4.097 5.51 6.909 18.188 13.622 36.45 20.396 54.69 1.663 4.479 3.331 8.956 5.37 14.434 6.174-16.66 12.008-32.346 17.795-48.049 2.515-6.823 4.879-13.701 7.41-20.518 2.31-6.215 4.236-7.43 10.762-7.274 2.663.064 5.328.015 7.993.012 5.331-.007 6.325 1.316 4.406 6.24-3.604 9.248-7.158 18.521-11.026 27.66-2.142 5.061-2.18 9.799-.096 14.866 3.52 8.562 6.734 17.25 10.288 26.431.631-1.19 1.195-2.03 1.546-2.95a54684.57 54684.57 0 0 0 24.258-63.73c3.045-8.01 3.886-8.59 12.342-8.47 2.332.032 4.664-.058 6.996-.044 6.034.035 6.6.795 4.393 6.274-6.706 16.652-13.454 33.287-20.198 49.924-5.81 14.333-11.807 28.594-17.365 43.025-1.95 5.065-4.646 7.84-10.298 6.966a15.505 15.505 0 0 0-4.488-.026c-3.827.544-5.675-1.3-7.047-4.698-4.313-10.691-8.889-21.276-13.846-33.05-2.377 5.998-4.341 10.953-6.497 16.245z"/><path fill="#F9F9F9" d="M199.575 150.622c3.727 1.406 7.116 2.648 10.815 4.004-3.809 9.254-7.562 18.624-11.599 27.87-.52 1.19-2.484 2.42-3.824 2.47-6.618.253-13.252.116-20.558.116l8.552-19.8c-12.588-9.285-20.734-21.76-22.888-37.445-1.634-11.902.36-23.473 6.266-34.21 11.468-20.85 36.1-32.193 59.32-26.837 1.083-2.222 2.394-4.495 3.325-6.914 1.772-4.608 4.845-5.568 9.129-3.652 2.558 1.144 5.094 2.336 8.105 3.72l-12.026 31.831c-11.088-6.101-22.235-8.36-33.904-2.845-7.506 3.548-13.124 8.9-16.387 16.64-7.378 17.494-1.372 35.13 15.674 45.052z"/></svg>